<svg xmlns="http://www.w3.org/2000/svg" viewBox="0 0 700 450" fill="none">
  <defs>
    <linearGradient id="dbg" x1="0" y1="0" x2="700" y2="450">
      <stop offset="0%" stop-color="#0d1117"/>
      <stop offset="100%" stop-color="#161b22"/>
    </linearGradient>
  </defs>
  <rect width="700" height="450" rx="10" fill="url(#dbg)"/>
  <rect x="1" y="1" width="698" height="448" rx="9" fill="none" stroke="#30363d" stroke-width="1"/>

  <!-- Terminal header -->
  <rect x="0" y="0" width="700" height="32" rx="10" fill="#1c2128"/>
  <rect x="0" y="20" width="700" height="12" fill="#1c2128"/>
  <circle cx="20" cy="16" r="6" fill="#f85149"/>
  <circle cx="38" cy="16" r="6" fill="#d29922"/>
  <circle cx="56" cy="16" r="6" fill="#3fb950"/>
  <text x="350" y="20" font-family="SF Mono, monospace" font-size="12" fill="#8b949e" text-anchor="middle">/context-report — Token ROI Report</text>

  <!-- Main box -->
  <rect x="25" y="45" width="650" height="45" rx="6" fill="#161b22" stroke="#30363d" stroke-width="1"/>
  <text x="350" y="72" font-family="SF Mono, monospace" font-size="16" font-weight="700" fill="#f0f6fc" text-anchor="middle">CONTEXT OPTIMIZER — TOKEN ROI REPORT</text>

  <!-- Cards row -->
  <rect x="25" y="105" width="150" height="70" rx="6" fill="#161b22" stroke="#30363d" stroke-width="1"/>
  <text x="100" y="127" font-family="SF Mono, monospace" font-size="10" fill="#8b949e" text-anchor="middle">SESSIONS</text>
  <text x="100" y="157" font-family="SF Mono, monospace" font-size="26" font-weight="700" fill="#f0f6fc" text-anchor="middle">47</text>

  <rect x="190" y="105" width="150" height="70" rx="6" fill="#161b22" stroke="#30363d" stroke-width="1"/>
  <text x="265" y="127" font-family="SF Mono, monospace" font-size="10" fill="#8b949e" text-anchor="middle">TOTAL TOKENS</text>
  <text x="265" y="157" font-family="SF Mono, monospace" font-size="26" font-weight="700" fill="#f0f6fc" text-anchor="middle">2.1M</text>

  <rect x="355" y="105" width="150" height="70" rx="6" fill="#161b22" stroke="#30363d" stroke-width="1"/>
  <text x="430" y="127" font-family="SF Mono, monospace" font-size="10" fill="#8b949e" text-anchor="middle">WASTE RATIO</text>
  <text x="430" y="157" font-family="SF Mono, monospace" font-size="26" font-weight="700" fill="#d29922" text-anchor="middle">32%</text>

  <rect x="520" y="105" width="155" height="70" rx="6" fill="#161b22" stroke="#30363d" stroke-width="1"/>
  <text x="597" y="127" font-family="SF Mono, monospace" font-size="10" fill="#8b949e" text-anchor="middle">EST. SAVED</text>
  <text x="597" y="157" font-family="SF Mono, monospace" font-size="26" font-weight="700" fill="#3fb950" text-anchor="middle">$10.20</text>

  <!-- Waste trend chart -->
  <text x="30" y="205" font-family="SF Mono, monospace" font-size="13" font-weight="600" fill="#8b949e">WASTE TREND (last 15 sessions)</text>

  <!-- Chart area -->
  <line x1="50" y1="215" x2="50" y2="300" stroke="#21262d" stroke-width="1"/>
  <line x1="50" y1="300" x2="670" y2="300" stroke="#21262d" stroke-width="1"/>

  <!-- Y-axis labels -->
  <text x="40" y="220" font-family="SF Mono, monospace" font-size="9" fill="#484f58" text-anchor="end">50%</text>
  <text x="40" y="260" font-family="SF Mono, monospace" font-size="9" fill="#484f58" text-anchor="end">25%</text>
  <text x="40" y="300" font-family="SF Mono, monospace" font-size="9" fill="#484f58" text-anchor="end">0%</text>

  <!-- Grid lines -->
  <line x1="50" y1="220" x2="670" y2="220" stroke="#21262d" stroke-width="0.5" stroke-dasharray="4"/>
  <line x1="50" y1="260" x2="670" y2="260" stroke="#21262d" stroke-width="0.5" stroke-dasharray="4"/>

  <!-- Bars -->
  <rect x="70" y="240" width="30" height="60" rx="2" fill="#f85149" opacity="0.6"/>
  <rect x="110" y="252" width="30" height="48" rx="2" fill="#d29922" opacity="0.6"/>
  <rect x="150" y="235" width="30" height="65" rx="2" fill="#f85149" opacity="0.6"/>
  <rect x="190" y="258" width="30" height="42" rx="2" fill="#d29922" opacity="0.6"/>
  <rect x="230" y="262" width="30" height="38" rx="2" fill="#d29922" opacity="0.6"/>
  <rect x="270" y="255" width="30" height="45" rx="2" fill="#d29922" opacity="0.6"/>
  <rect x="310" y="268" width="30" height="32" rx="2" fill="#d29922" opacity="0.6"/>
  <rect x="350" y="270" width="30" height="30" rx="2" fill="#d29922" opacity="0.6"/>
  <rect x="390" y="275" width="30" height="25" rx="2" fill="#3fb950" opacity="0.6"/>
  <rect x="430" y="265" width="30" height="35" rx="2" fill="#d29922" opacity="0.6"/>
  <rect x="470" y="278" width="30" height="22" rx="2" fill="#3fb950" opacity="0.6"/>
  <rect x="510" y="280" width="30" height="20" rx="2" fill="#3fb950" opacity="0.6"/>
  <rect x="550" y="276" width="30" height="24" rx="2" fill="#3fb950" opacity="0.6"/>
  <rect x="590" y="283" width="30" height="17" rx="2" fill="#3fb950" opacity="0.6"/>
  <rect x="630" y="285" width="30" height="15" rx="2" fill="#3fb950" opacity="0.6"/>

  <!-- Trend line -->
  <text x="670" y="218" font-family="SF Mono, monospace" font-size="11" fill="#3fb950" text-anchor="end">↓ IMPROVING</text>

  <!-- Recommendations -->
  <text x="30" y="335" font-family="SF Mono, monospace" font-size="13" font-weight="600" fill="#8b949e">RECOMMENDATIONS</text>
  <line x1="30" y1="343" x2="670" y2="343" stroke="#21262d" stroke-width="1"/>

  <text x="40" y="365" font-family="SF Mono, monospace" font-size="12" fill="#3fb950">✓</text>
  <text x="60" y="365" font-family="SF Mono, monospace" font-size="12" fill="#c9d1d9">Context usage is improving. Waste dropped from 38% to 15%</text>

  <text x="40" y="390" font-family="SF Mono, monospace" font-size="12" fill="#d29922">!</text>
  <text x="60" y="390" font-family="SF Mono, monospace" font-size="12" fill="#c9d1d9">Avoid reading README.md — wasted 2,400 tokens across 8 sessions</text>

  <text x="40" y="415" font-family="SF Mono, monospace" font-size="12" fill="#58a6ff">→</text>
  <text x="60" y="415" font-family="SF Mono, monospace" font-size="12" fill="#c9d1d9">Create a template for "api-fix" tasks: auth-service.ts + api-routes.ts</text>

  <text x="30" y="440" font-family="SF Mono, monospace" font-size="10" fill="#484f58">claude-context-optimizer v1.0.0 | Run /context-export html for full dashboard</text>
</svg>
