<svg xmlns="http://www.w3.org/2000/svg" viewBox="0 0 600 200" fill="none">
  <defs>
    <linearGradient id="bg" x1="0" y1="0" x2="600" y2="200">
      <stop offset="0%" stop-color="#0d1117"/>
      <stop offset="100%" stop-color="#161b22"/>
    </linearGradient>
    <linearGradient id="accent" x1="0" y1="0" x2="1" y2="1">
      <stop offset="0%" stop-color="#58a6ff"/>
      <stop offset="100%" stop-color="#a371f7"/>
    </linearGradient>
    <linearGradient id="green" x1="0" y1="0" x2="1" y2="0">
      <stop offset="0%" stop-color="#3fb950"/>
      <stop offset="100%" stop-color="#56d364"/>
    </linearGradient>
  </defs>
  <rect width="600" height="200" rx="12" fill="url(#bg)"/>
  <rect x="1" y="1" width="598" height="198" rx="11" fill="none" stroke="#30363d" stroke-width="1"/>

  <!-- Icon: magnifying glass + lightning bolt -->
  <circle cx="80" cy="90" r="30" fill="none" stroke="url(#accent)" stroke-width="3"/>
  <line x1="102" y1="112" x2="120" y2="130" stroke="url(#accent)" stroke-width="3" stroke-linecap="round"/>
  <path d="M75 78 L82 90 L72 90 L80 105" fill="none" stroke="url(#green)" stroke-width="2.5" stroke-linecap="round" stroke-linejoin="round"/>

  <!-- Title -->
  <text x="150" y="78" font-family="SF Mono, Fira Code, monospace" font-size="24" font-weight="700" fill="#f0f6fc">claude-context-optimizer</text>
  <text x="150" y="108" font-family="SF Mono, Fira Code, monospace" font-size="14" fill="#8b949e">Intelligent token tracking for Claude Code</text>

  <!-- Stats badges -->
  <rect x="150" y="125" width="90" height="24" rx="12" fill="#0d3117"/>
  <text x="195" y="141" font-family="SF Mono, monospace" font-size="11" fill="#3fb950" text-anchor="middle">Save 30-50%</text>

  <rect x="250" y="125" width="85" height="24" rx="12" fill="#1a1a3e"/>
  <text x="292" y="141" font-family="SF Mono, monospace" font-size="11" fill="#a371f7" text-anchor="middle">Zero Config</text>

  <rect x="345" y="125" width="80" height="24" rx="12" fill="#1a2733"/>
  <text x="385" y="141" font-family="SF Mono, monospace" font-size="11" fill="#58a6ff" text-anchor="middle">Local Only</text>

  <rect x="435" y="125" width="90" height="24" rx="12" fill="#2d1a00"/>
  <text x="480" y="141" font-family="SF Mono, monospace" font-size="11" fill="#d29922" text-anchor="middle">8 Commands</text>
</svg>
